<svg width="914" height="400" fill="none" xmlns="http://www.w3.org/2000/svg"><style>#CL0 {fill: #CCC;}#CL1 {stroke: #DDD;}@media (prefers-color-scheme: dark) {#CL0 {fill: #333;}#CL1 {stroke: #222;}}</style><path d="M303.085 191.94c1.4 0 2.53.53 3.39 1.59.86 1.04 1.29 2.41 1.29 4.11 0 1.7-.43 3.06-1.29 4.08-.84 1.02-1.95 1.53-3.33 1.53h-3.33c-.08 0-.12.04-.12.12v9.33c0 .2-.1.3-.3.3h-.99c-.2 0-.3-.1-.3-.3v-20.46c0-.2.1-.3.3-.3h4.68Zm-.18 9.99c.98 0 1.77-.39 2.37-1.17.6-.78.9-1.81.9-3.09 0-1.3-.3-2.34-.9-3.12-.6-.78-1.39-1.17-2.37-1.17h-3.09c-.08 0-.12.04-.12.12v8.31c0 .08.04.12.12.12h3.09ZM329.501 213c-.2 0-.3-.1-.3-.3v-20.4c0-.2.1-.3.3-.3h.99c.2 0 .3.1.3.3v19.17c0 .08.04.12.12.12h7.02c.2 0 .3.1.3.3v.81c0 .2-.1.3-.3.3h-8.43Zm38.535 0c-.18 0-.29-.09-.33-.27l-.81-3.93c0-.04-.02-.07-.06-.09-.02-.02-.05-.03-.09-.03h-5.88c-.04 0-.08.01-.12.03-.02.02-.03.05-.03.09l-.81 3.93c-.02.18-.13.27-.33.27h-.99c-.1 0-.18-.03-.24-.09-.04-.06-.05-.14-.03-.24l4.56-20.4c.04-.18.15-.27.33-.27h1.2c.2 0 .31.09.33.27l4.59 20.4v.06c0 .18-.09.27-.27.27h-1.02Zm-6.99-5.76c0 .08.03.12.09.12h5.31c.06 0 .09-.04.09-.12l-2.67-12.69c-.02-.06-.04-.09-.06-.09-.02 0-.04.03-.06.09l-2.7 12.69Zm33.055 6c-1.46 0-2.64-.45-3.54-1.35-.88-.92-1.32-2.14-1.32-3.66v-11.52c0-1.5.44-2.7 1.32-3.6.9-.9 2.08-1.35 3.54-1.35 1.48 0 2.66.45 3.54 1.35.9.9 1.35 2.1 1.35 3.6v.57c0 .1-.03.18-.09.24s-.13.09-.21.09l-.99.06c-.2 0-.3-.1-.3-.3v-.75c0-1.04-.3-1.87-.9-2.49-.6-.64-1.4-.96-2.4-.96-.98 0-1.77.32-2.37.96-.6.62-.9 1.45-.9 2.49v11.73c0 1.04.3 1.88.9 2.52.6.64 1.39.96 2.37.96.98 0 1.77-.32 2.37-.96.62-.64.93-1.48.93-2.52v-.69c0-.2.1-.3.3-.3l.99.06c.2 0 .3.1.3.3v.51c0 1.52-.45 2.74-1.35 3.66-.88.9-2.06 1.35-3.54 1.35Zm36.042-20.13c0 .2-.1.3-.3.3h-7.11c-.08 0-.12.04-.12.12v8.13c0 .08.04.12.12.12h4.56c.2 0 .3.1.3.3v.81c0 .2-.1.3-.3.3h-4.56c-.08 0-.12.04-.12.12v8.16c0 .08.04.12.12.12h7.11c.2 0 .3.1.3.3v.81c0 .2-.1.3-.3.3h-8.52c-.2 0-.3-.1-.3-.3v-20.4c0-.2.1-.3.3-.3h8.52c.2 0 .3.1.3.3v.81Zm29.453-.81c0-.2.1-.3.3-.3h.99c.2 0 .3.1.3.3v20.4c0 .2-.1.3-.3.3h-.99c-.2 0-.3-.1-.3-.3v-9.39c0-.08-.04-.12-.12-.12h-5.94c-.08 0-.12.04-.12.12v9.39c0 .2-.1.3-.3.3h-.99c-.2 0-.3-.1-.3-.3v-20.4c0-.2.1-.3.3-.3h.99c.2 0 .3.1.3.3v9.36c0 .08.04.12.12.12h5.94c.08 0 .12-.04.12-.12v-9.36Zm28.702 20.94c-1.46 0-2.65-.46-3.57-1.38-.9-.94-1.35-2.16-1.35-3.66v-11.37c0-1.52.45-2.74 1.35-3.66.9-.94 2.09-1.41 3.57-1.41s2.68.47 3.6 1.41c.92.92 1.38 2.14 1.38 3.66v11.37c0 1.5-.46 2.72-1.38 3.66-.92.92-2.12 1.38-3.6 1.38Zm0-1.41c1 0 1.81-.33 2.43-.99.64-.66.96-1.52.96-2.58v-11.49c0-1.06-.32-1.92-.96-2.58-.62-.68-1.43-1.02-2.43-1.02-.98 0-1.78.34-2.4 1.02-.62.66-.93 1.52-.93 2.58v11.49c0 1.06.31 1.92.93 2.58.62.66 1.42.99 2.4.99Zm27.455 1.17c-.2 0-.3-.1-.3-.3v-20.4c0-.2.1-.3.3-.3h.99c.2 0 .3.1.3.3v19.17c0 .08.04.12.12.12h7.02c.2 0 .3.1.3.3v.81c0 .2-.1.3-.3.3h-8.43Zm29.631 0c-.2 0-.3-.1-.3-.3v-20.4c0-.2.1-.3.3-.3h4.41c1.48 0 2.65.5 3.51 1.5.86.98 1.29 2.32 1.29 4.02v9.96c0 1.7-.43 3.05-1.29 4.05-.86.98-2.03 1.47-3.51 1.47h-4.41Zm1.29-1.53c0 .08.04.12.12.12h3c.98-.02 1.75-.39 2.31-1.11.58-.74.87-1.75.87-3.03v-9.87c0-1.3-.29-2.32-.87-3.06-.56-.74-1.34-1.11-2.34-1.11h-2.97c-.08 0-.12.04-.12.12v17.94Zm39.182-18.36c0 .2-.1.3-.3.3h-7.11c-.08 0-.12.04-.12.12v8.13c0 .08.04.12.12.12h4.56c.2 0 .3.1.3.3v.81c0 .2-.1.3-.3.3h-4.56c-.08 0-.12.04-.12.12v8.16c0 .08.04.12.12.12h7.11c.2 0 .3.1.3.3v.81c0 .2-.1.3-.3.3h-8.52c-.2 0-.3-.1-.3-.3v-20.4c0-.2.1-.3.3-.3h8.52c.2 0 .3.1.3.3v.81ZM615.999 213c-.18 0-.3-.08-.36-.24l-3.3-9.51c-.02-.06-.06-.09-.12-.09h-2.97c-.08 0-.12.04-.12.12v9.42c0 .2-.1.3-.3.3h-.99c-.2 0-.3-.1-.3-.3v-20.4c0-.2.1-.3.3-.3h4.65c1.4 0 2.53.52 3.39 1.56.86 1.04 1.29 2.4 1.29 4.08 0 1.34-.29 2.48-.87 3.42-.58.94-1.37 1.58-2.37 1.92-.08.02-.11.07-.09.15l3.39 9.54.03.12c0 .14-.09.21-.27.21h-.99Zm-6.75-19.59c-.08 0-.12.04-.12.12v8.19c0 .08.04.12.12.12h3.06c.98 0 1.77-.38 2.37-1.14.6-.78.9-1.8.9-3.06 0-1.28-.3-2.3-.9-3.06-.6-.78-1.39-1.17-2.37-1.17h-3.06Z" id="CL0"/><path id="CL1" stroke-dasharray="4 4" d="M16.5 16.5h881v367h-881z"/></svg>
