<svg width="914" height="400" fill="none" xmlns="http://www.w3.org/2000/svg"><style>#CL0 {fill: #00ACD7;}#CL1 {fill: #555;}@media (prefers-color-scheme: dark) {#CL0 {fill: #00ACD7;}#CL1 {fill: #AAA;}}</style><path d="M349.015 196.621h15.816l-7.901-11.547-7.915 11.547Zm15.802 5.782H349l7.901 11.547 7.916-11.547Zm19.696 5.276c0-1.278.401-3.482 1.177-6.562.777-3.131 1.177-5.034 1.177-5.711 0-.726-.551-1.653-1.628-2.83l.05-.576c2.029-.425 4.734-.626 8.065-.626.15.401.225 1.102.225 2.104 0 1.027-.425 3.206-1.252 6.512-.851 3.331-1.252 5.409-1.252 6.211 0 .801.3 1.227.902 1.227.876 0 1.878-.325 3.005-.952.125-.726.426-2.103.902-4.132 1.077-4.809 1.628-8.24 1.628-10.294 1.051-.425 2.93-.626 5.66-.626h.851c0 1.403-.425 4.158-1.252 8.29-.852 4.083-1.252 6.487-1.252 7.188 0 .701.15 1.027.451 1.027.175 0 1.026-.351 2.554-1.077l.852 1.428c-2.68 2.229-5.009 3.331-7.013 3.331-.952 0-1.778-.276-2.479-.802a3.138 3.138 0 0 1-1.127-2.104c-2.43 1.979-4.634 2.981-6.612 2.981-1.052 0-1.929-.351-2.605-1.027-.651-.701-1.002-1.653-1.002-2.93m20.712 13.399c-.15-.351-.225-1.152-.225-2.379 0-1.228.576-4.534 1.753-9.893 1.177-5.41 1.753-9.543 1.753-12.473 0-.576-.125-1.177-.4-1.803-.276-.651-.551-1.177-.852-1.528l-.401-.501.051-.576c1.402-.451 3.907-.676 7.463-.676.326.626.551 1.503.626 2.655 2.304-1.879 4.233-2.83 5.761-2.83 1.552 0 2.805.651 3.731 1.928.952 1.277 1.428 3.181 1.428 5.66 0 4.358-.802 7.589-2.379 9.718-1.578 2.104-3.607 3.156-6.036 3.156-1.253 0-2.304-.176-3.156-.551l-.451-.176.326-1.753c.275.05.576.1.951.1.777 0 1.453-.35 2.029-1.077.601-.726 1.052-1.628 1.353-2.755.601-2.229.901-4.282.901-6.161 0-2.705-.551-4.057-1.653-4.057-.876 0-1.803.351-2.78 1.027-.125 2.104-.726 5.785-1.853 11.02-1.127 5.234-1.653 9.467-1.653 12.698-1.628.651-3.707 1.077-6.261 1.227m44.054-12.823c-2.554 2.179-4.809 3.281-6.737 3.281-1.929 0-3.031-.952-3.331-2.881a10.202 10.202 0 0 1-3.005 2.104c-1.102.501-2.079.777-2.931.777-1.427 0-2.68-.626-3.681-1.879-1.027-1.252-1.528-3.206-1.528-5.86 0-3.957.851-7.063 2.529-9.317 1.678-2.279 3.582-3.431 5.661-3.431 2.128 0 3.907.476 5.359 1.427.927-4.859 1.403-8.69 1.403-11.47l-.226-1.879c2.254-.776 4.458-1.177 6.612-1.177.251.501.351 1.102.351 1.753 0 2.179-.651 6.637-1.979 13.374-1.327 6.687-1.978 11.221-1.978 13.625 0 .726.175 1.077.501 1.077.175 0 .751-.276 1.703-.852l.451-.275.851 1.578m-10.844-14.527c-1.052 0-1.954 1.027-2.755 3.106-.752 2.079-1.127 4.133-1.127 6.161 0 2.004.125 3.306.4 3.857.301.576.727.852 1.303.852 1.001 0 1.953-.401 2.93-1.228.1-1.202.776-5.184 2.029-11.971-1.027-.551-1.954-.802-2.78-.802m18.358 17.858c-2.079 0-3.682-.727-4.859-2.154-1.177-1.478-1.753-3.507-1.753-6.111 0-3.331.876-6.186 2.655-8.591 1.803-2.404 4.282-3.606 7.413-3.606l1.628.1c.501-.276 1.077-.401 1.703-.401 2.379 0 3.556 2.229 3.556 6.712 1.228-.05 2.48-.225 3.732-.501l.727-.175.275 1.753c-1.002.426-2.329.802-4.007 1.127l-.902.176c-.576 3.155-1.728 5.885-3.456 8.239-1.728 2.305-3.982 3.457-6.712 3.457m2.429-3.857c1.252 0 2.379-.802 3.381-2.43 1.027-1.628 1.728-3.331 2.104-5.134-3.206 0-4.809-1.202-4.809-3.606 0-.952.201-1.854.576-2.705l.226-.451a1.2 1.2 0 0 0-.451-.1c-.175 0-.326.025-.401.1-.751.476-1.452 1.603-2.104 3.381-.651 1.778-1.001 3.782-1.001 6.086 0 3.231.826 4.859 2.479 4.859Zm10.644-.401.501-11.746c0-1.027-.551-2.079-1.628-3.156l.101-.551c.2-.05.4-.1.576-.125.2-.05.425-.125.676-.175.275-.051.576-.126.901-.176.326-.05.677-.125 1.027-.175.852-.1 1.628-.125 2.329-.125.752 0 1.378.3 1.879.901.551.601.801 1.553.801 2.881 0 1.277-.2 3.155-.626 5.585-.401 2.404-.576 4.207-.576 5.409 0 1.178.276 1.754.852 1.754.926 0 1.953-.576 3.055-1.754.025-.475.226-2.003.576-4.583.351-2.58.551-4.458.551-5.635 0-1.177-.1-2.179-.275-3.005 2.304-.877 4.383-1.303 6.211-1.303.401.276.576 1.152.576 2.655 0 1.478-.25 3.531-.776 6.161-.501 2.605-.777 4.508-.777 5.71 0 1.178.251 1.754.727 1.754 1.152 0 2.379-.852 3.731-2.53 1.353-1.703 2.079-3.131 2.154-4.283l-3.055-3.431c.125-1.277.425-2.454.951-3.506.501-1.052 1.002-1.778 1.428-2.204l.626-.576c1.277 0 2.254.35 2.93 1.027.652.701 1.002 1.502 1.002 2.429 0 2.379-.576 4.884-1.753 7.514-1.177 2.629-2.755 4.883-4.734 6.737-1.978 1.828-3.982 2.755-6.035 2.755-1.027 0-1.879-.276-2.605-.852-.701-.601-1.152-1.352-1.403-2.304-2.103 2.104-4.132 3.156-6.111 3.156-1.327 0-2.304-.401-2.93-1.228-.626-.851-.952-1.853-.952-3.005m28.326 3.832h-.851c0-1.403.426-4.107 1.252-8.09.877-3.982 1.303-6.261 1.303-6.787 0-1.002-.426-2.029-1.253-3.156l-.4-.551.05-.576c1.628-.45 4.207-.676 7.789-.676.4.501.601 1.428.626 2.78 2.605-2.003 4.809-3.005 6.612-3.005 1.077 0 1.928.375 2.554 1.127.652.751 1.002 1.703 1.002 2.83 0 1.102-.35 3.055-1.027 5.81-.701 2.755-1.027 4.609-1.027 5.585 0 .927.126 1.403.351 1.403.175 0 .802-.276 1.879-.852l.551-.275.801 1.578c-.276.25-.626.551-1.077.901-.451.351-1.277.852-2.53 1.478-1.202.601-2.279.902-3.23.902-2.179 0-3.281-1.253-3.281-3.732 0-1.052.325-2.98 1.001-5.811.702-2.83 1.027-4.633 1.027-5.434 0-.802-.25-1.203-.776-1.228-.877 0-1.929.376-3.206 1.127-.1.501-.401 1.854-.901 4.058-1.052 4.708-1.578 8.039-1.578 9.993-1.052.426-2.931.626-5.661.626" id="CL1"/><path d="M523.624 211.529c-1.051 0-1.852-.326-2.428-.952-.576-.626-.851-1.477-.851-2.529 0-1.051.4-1.953 1.176-2.704.776-.776 1.703-1.176 2.754-1.176 1.077 0 1.903.325 2.479.951.576.601.851 1.427.851 2.479 0 1.026-.4 1.928-1.226 2.754-.777.776-1.703 1.177-2.755 1.177Zm16.6-17.677c0 1.252-.4 3.43-1.227 6.51-.801 3.054-1.226 5.057-1.226 6.034 0 .926.125 1.402.4 1.402.175 0 .877-.275 2.078-.851l.551-.276.776 1.578a18.2 18.2 0 0 1-1.076.901c-.451.351-1.277.851-2.529 1.477-1.227.601-2.379.902-3.43.902-1.052 0-1.878-.326-2.479-.952-.601-.651-.901-1.527-.901-2.604 0-1.101.375-3.054 1.126-5.858.752-2.83 1.127-4.657 1.127-5.484 0-1.252-.401-2.453-1.177-3.555l-.4-.551.05-.576c1.577-.45 4.156-.676 7.736-.676.401.451.576 1.302.576 2.554m-5.132-7.461c-.601-.601-.902-1.402-.902-2.379 0-1.001.401-1.852 1.227-2.603.851-.752 1.803-1.127 2.879-1.127 1.077 0 1.928.3 2.529.901s.901 1.402.901 2.379c0 .951-.425 1.802-1.301 2.554-.852.751-1.778 1.126-2.83 1.126-1.051 0-1.877-.275-2.478-.851m14.346 25.163c-2.078 0-3.68-.726-4.857-2.154-1.177-1.477-1.753-3.505-1.753-6.109 0-3.33.876-6.184 2.654-8.588 1.803-2.403 4.282-3.605 7.411-3.605l1.628.1c.5-.275 1.076-.4 1.702-.4 2.379 0 3.556 2.228 3.556 6.71a21.544 21.544 0 0 0 3.73-.501l.726-.175.276 1.752c-1.002.426-2.329.801-4.006 1.127l-.902.175c-.576 3.155-1.727 5.884-3.455 8.237-1.727 2.304-3.981 3.456-6.71 3.456m2.429-3.856c1.252 0 2.378-.801 3.38-2.429 1.026-1.627 1.727-3.33 2.103-5.132-3.205 0-4.807-1.202-4.807-3.606 0-.951.2-1.853.576-2.704l.225-.451a1.2 1.2 0 0 0-.451-.1c-.175 0-.325.025-.4.1-.751.476-1.453 1.603-2.104 3.381-.65 1.777-1.001 3.78-1.001 6.084 0 3.229.826 4.857 2.479 4.857Z" id="CL0"/></svg>